<?xml version="1.0" encoding="UTF-8" standalone="no"?>
<!-- Created with Inkscape (http://www.inkscape.org/) -->

<svg
   width="269.62955mm"
   height="164.98756mm"
   viewBox="0 0 269.62955 164.98756"
   version="1.1"
   id="svg5"
   inkscape:version="1.1.2 (0a00cf5339, 2022-02-04)"
   sodipodi:docname="terminal.svg"
   xmlns:inkscape="http://www.inkscape.org/namespaces/inkscape"
   xmlns:sodipodi="http://sodipodi.sourceforge.net/DTD/sodipodi-0.dtd"
   xmlns="http://www.w3.org/2000/svg"
   xmlns:svg="http://www.w3.org/2000/svg">
  <sodipodi:namedview
     id="namedview7"
     pagecolor="#565d9f"
     bordercolor="#666666"
     borderopacity="1.0"
     inkscape:pageshadow="2"
     inkscape:pageopacity="0"
     inkscape:pagecheckerboard="0"
     inkscape:document-units="mm"
     showgrid="true"
     showborder="false"
     inkscape:snap-intersection-paths="true"
     inkscape:object-paths="false"
     inkscape:snap-bbox="false"
     inkscape:object-nodes="false"
     inkscape:zoom="3.7507926"
     inkscape:cx="137.97084"
     inkscape:cy="74.917498"
     inkscape:window-width="1916"
     inkscape:window-height="941"
     inkscape:window-x="0"
     inkscape:window-y="32"
     inkscape:window-maximized="1"
     inkscape:current-layer="layer1">
    <inkscape:grid
       type="xygrid"
       id="grid4807"
       originx="-25.188413"
       originy="-74.628106" />
  </sodipodi:namedview>
  <defs
     id="defs2">
    <linearGradient
       id="linearGradient8452"
       inkscape:swatch="solid">
      <stop
         style="stop-color:#ffffff;stop-opacity:1;"
         offset="0"
         id="stop8450" />
    </linearGradient>
    <inkscape:path-effect
       effect="fillet_chamfer"
       id="path-effect21935"
       is_visible="true"
       lpeversion="1"
       satellites_param="F,0,0,1,0,0.396875,0,1 @ F,0,0,1,0,0.396875,0,1 @ F,0,0,1,0,0.396875,0,1 @ F,0,0,1,0,0.396875,0,1"
       unit="px"
       method="auto"
       mode="F"
       radius="1.5"
       chamfer_steps="1"
       flexible="false"
       use_knot_distance="true"
       apply_no_radius="true"
       apply_with_radius="true"
       only_selected="false"
       hide_knots="false" />
    <marker
       style="overflow:visible"
       id="DotM"
       refX="0"
       refY="0"
       orient="auto"
       inkscape:stockid="DotM"
       inkscape:isstock="true">
      <path
         transform="matrix(0.4,0,0,0.4,2.96,0.4)"
         style="fill:context-stroke;fill-rule:evenodd;stroke:context-stroke;stroke-width:1pt"
         d="m -2.5,-1 c 0,2.76 -2.24,5 -5,5 -2.76,0 -5,-2.24 -5,-5 0,-2.76 2.24,-5 5,-5 2.76,0 5,2.24 5,5 z"
         id="path7304" />
    </marker>
    <marker
       style="overflow:visible"
       id="SquareS"
       refX="0"
       refY="0"
       orient="auto"
       inkscape:stockid="SquareS"
       inkscape:isstock="true">
      <path
         transform="scale(0.2)"
         style="fill:context-stroke;fill-rule:evenodd;stroke:context-stroke;stroke-width:1pt"
         d="M -5,-5 V 5 H 5 V -5 Z"
         id="path7316" />
    </marker>
    <marker
       style="overflow:visible"
       id="marker7510"
       refX="0"
       refY="0"
       orient="auto"
       inkscape:stockid="DotL"
       inkscape:isstock="true">
      <path
         transform="matrix(0.8,0,0,0.8,5.92,0.8)"
         style="fill:context-stroke;fill-rule:evenodd;stroke:context-stroke;stroke-width:1pt"
         d="m -2.5,-1 c 0,2.76 -2.24,5 -5,5 -2.76,0 -5,-2.24 -5,-5 0,-2.76 2.24,-5 5,-5 2.76,0 5,2.24 5,5 z"
         id="path7508" />
    </marker>
    <marker
       style="overflow:visible"
       id="DotL"
       refX="0"
       refY="0"
       orient="auto"
       inkscape:stockid="DotL"
       inkscape:isstock="true">
      <path
         transform="matrix(0.8,0,0,0.8,5.92,0.8)"
         style="fill:context-stroke;fill-rule:evenodd;stroke:context-stroke;stroke-width:1pt"
         d="m -2.5,-1 c 0,2.76 -2.24,5 -5,5 -2.76,0 -5,-2.24 -5,-5 0,-2.76 2.24,-5 5,-5 2.76,0 5,2.24 5,5 z"
         id="path7301" />
    </marker>
    <marker
       style="overflow:visible"
       id="SquareS-6"
       refX="0"
       refY="0"
       orient="auto"
       inkscape:stockid="SquareS"
       inkscape:isstock="true">
      <path
         transform="scale(0.2)"
         style="fill:context-stroke;fill-rule:evenodd;stroke:context-stroke;stroke-width:1pt"
         d="M -5,-5 V 5 H 5 V -5 Z"
         id="path7316-7" />
    </marker>
    <marker
       style="overflow:visible"
       id="marker7544"
       refX="0"
       refY="0"
       orient="auto"
       inkscape:stockid="SquareS"
       inkscape:isstock="true">
      <path
         transform="scale(0.2)"
         style="fill:context-stroke;fill-rule:evenodd;stroke:context-stroke;stroke-width:1pt"
         d="M -5,-5 V 5 H 5 V -5 Z"
         id="path7542" />
    </marker>
    <marker
       style="overflow:visible"
       id="SquareS-3"
       refX="0"
       refY="0"
       orient="auto"
       inkscape:stockid="SquareS"
       inkscape:isstock="true">
      <path
         transform="scale(0.2)"
         style="fill:context-stroke;fill-rule:evenodd;stroke:context-stroke;stroke-width:1pt"
         d="M -5,-5 V 5 H 5 V -5 Z"
         id="path7316-5" />
    </marker>
    <marker
       style="overflow:visible"
       id="marker7544-6"
       refX="0"
       refY="0"
       orient="auto"
       inkscape:stockid="SquareS"
       inkscape:isstock="true">
      <path
         transform="scale(0.2)"
         style="fill:context-stroke;fill-rule:evenodd;stroke:context-stroke;stroke-width:1pt"
         d="M -5,-5 V 5 H 5 V -5 Z"
         id="path7542-2" />
    </marker>
  </defs>
  <g
     inkscape:label="Layer 1"
     inkscape:groupmode="layer"
     id="layer1"
     transform="translate(-25.188413,-74.628111)">
    <path
       style="fill:none;fill-opacity:0.206854;stroke:#ffffff;stroke-width:0.346;stroke-linecap:round;stroke-linejoin:round;stroke-miterlimit:4;stroke-dasharray:none;stroke-opacity:1;marker-start:url(#SquareS);marker-end:url(#SquareS)"
       d="m 132.39561,76.489682 72.85734,-0.03897 7.14161,3.963703 h 73.86699 l 6.53821,6.538215 V 222.21211 L 279.82808,235.1838 H 38.179976 L 25.911413,222.91523 V 88.652469 L 37.969822,76.715446 h 7.243899"
       id="path857"
       sodipodi:nodetypes="cccccccccccc" />
    <path
       style="fill:#2c3059;fill-opacity:0.3223747;stroke:#ffffff;stroke-width:0.4;stroke-linecap:round;stroke-linejoin:round;stroke-miterlimit:4;stroke-dasharray:none;stroke-opacity:0.25064173"
       d="m 137.60627,79.495431 h 66.6179 l 6.9942,3.81236 h 72.34237 l 6.40324,6.288568 V 219.69128 l -12.70393,12.47641 -194.857743,0.007 -10.306112,-9.46161 -38.78303,0.18195 -4.72888,-4.26935 V 89.676948 l 10.547226,-10.358299 6.857108,-0.01034 4.822536,5.165779 73.430305,-0.07174 5.57486,-5.083702 z"
       id="path857-5"
       sodipodi:nodetypes="cccccccccccccccccc" />
    <path
       style="fill:none;fill-opacity:0.207843;stroke:#7ed2ff;stroke-width:1.3;stroke-linecap:round;stroke-linejoin:round;stroke-miterlimit:4;stroke-dasharray:none;stroke-opacity:1"
       d="m 213.28211,78.395603 c 15.499,0 50.07051,0.0094 74.07131,0.0094 l 5.98067,5.980674"
       id="path4262"
       sodipodi:nodetypes="ccc" />
    <path
       style="fill:#7ed2ff;fill-opacity:0.86666667;stroke:#7ed2ff;stroke-width:0.0886436;stroke-linecap:round;stroke-linejoin:round;stroke-miterlimit:4;stroke-dasharray:none;stroke-opacity:1"
       d="m 25.691484,228.31881 6.922959,6.85003 a 0.16460775,0.16460775 112.16989 0 1 -0.114752,0.28161 l -4.184068,0.0261 a 127.45705,127.45705 179.82159 0 1 -0.793742,0.002 h -1.680938 a 0.39873045,0.39873045 44.866379 0 1 -0.398726,-0.39687 l -0.031,-6.64557 a 0.16453777,0.16453777 157.21468 0 1 0.280264,-0.11773 z"
       id="path4809"
       sodipodi:nodetypes="ccccc"
       inkscape:path-effect="#path-effect21935"
       inkscape:original-d="m 25.409369,228.03967 7.487189,7.40831 -4.977802,0.031 h -2.474688 z" />
    <path
       style="fill:none;fill-opacity:0.207843;fill-rule:nonzero;stroke:#7ed2ff;stroke-width:1.3;stroke-linecap:round;stroke-linejoin:round;stroke-miterlimit:4;stroke-dasharray:none;stroke-opacity:1"
       d="M 293.56214,224.30328 280.57893,237.2865 H 245.6299"
       id="path6109" />
    <path
       style="fill:#7ed2ff;fill-opacity:0.86666667;stroke:#7ed2ff;stroke-width:1.3;stroke-linecap:round;stroke-linejoin:round;stroke-miterlimit:4;stroke-dasharray:none;stroke-opacity:1"
       d="M 242.05094,237.2865 H 207.72016"
       id="path6278"
       sodipodi:nodetypes="cc" />
    <path
       style="fill:#7ed2ff;fill-opacity:0.86666667;stroke:#7ed2ff;stroke-width:1.3;stroke-linecap:round;stroke-linejoin:round;stroke-miterlimit:4;stroke-dasharray:none;stroke-opacity:1"
       d="M 204.49472,237.21922 H 186.31236"
       id="path6278-3"
       sodipodi:nodetypes="cc" />
    <path
       style="fill:#7ed2ff;fill-opacity:0.86666667;stroke:none;stroke-width:0.219499px;stroke-linecap:butt;stroke-linejoin:miter;stroke-opacity:1"
       d="m 63.559599,225.25501 1.974542,-0.0167 6.883188,6.68077 -1.989364,0.0128 z"
       id="path18573"
       sodipodi:nodetypes="ccccc" />
    <path
       style="fill:#7ed2ff;fill-opacity:0.86666667;stroke:none;stroke-width:0.219499px;stroke-linecap:butt;stroke-linejoin:miter;stroke-opacity:1"
       d="m 59.876417,225.25591 1.974542,-0.0167 6.883188,6.68076 -1.989364,0.0128 z"
       id="path18573-1"
       sodipodi:nodetypes="ccccc" />
    <path
       style="fill:#7ed2ff;fill-opacity:0.86666667;stroke:none;stroke-width:0.219499px;stroke-linecap:butt;stroke-linejoin:miter;stroke-opacity:1"
       d="m 56.329917,225.22619 1.974543,-0.0167 6.883188,6.68076 -1.989364,0.0128 z"
       id="path18573-2"
       sodipodi:nodetypes="ccccc" />
    <path
       style="fill:#7ed2ff;fill-opacity:0.86666667;stroke:none;stroke-width:0.219499px;stroke-linecap:butt;stroke-linejoin:miter;stroke-opacity:1"
       d="m 52.561604,225.2271 1.974542,-0.0167 6.883188,6.68076 -1.989364,0.0128 z"
       id="path18573-1-7"
       sodipodi:nodetypes="ccccc" />
    <path
       style="fill:#7ed2ff;fill-opacity:0.86666667;stroke:none;stroke-width:0.219499px;stroke-linecap:butt;stroke-linejoin:miter;stroke-opacity:1"
       d="m 48.557933,225.23595 1.974543,-0.0167 6.883188,6.68077 -1.989364,0.0128 z"
       id="path18573-0"
       sodipodi:nodetypes="ccccc" />
    <path
       style="fill:#7ed2ff;fill-opacity:0.86666667;stroke:none;stroke-width:0.219499px;stroke-linecap:butt;stroke-linejoin:miter;stroke-opacity:1"
       d="m 44.496524,225.23685 1.974542,-0.0167 6.883188,6.68076 -1.989364,0.0128 z"
       id="path18573-1-9"
       sodipodi:nodetypes="ccccc" />
    <path
       style="fill:#7ed2ff;fill-opacity:0.86666667;stroke:none;stroke-width:0.219499px;stroke-linecap:butt;stroke-linejoin:miter;stroke-opacity:1"
       d="m 40.351413,225.20713 1.974543,-0.0167 6.883188,6.68076 -1.989364,0.0128 z"
       id="path18573-2-3"
       sodipodi:nodetypes="ccccc" />
    <path
       style="fill:#7ed2ff;fill-opacity:0.86666667;stroke:none;stroke-width:0.219499px;stroke-linecap:butt;stroke-linejoin:miter;stroke-opacity:1"
       d="m 36.060821,225.20804 1.974542,-0.0167 6.883188,6.68076 -1.989364,0.0128 z"
       id="path18573-1-7-6"
       sodipodi:nodetypes="ccccc" />
    <ellipse
       style="fill:#ffffff;fill-opacity:1;stroke-width:0.055302;stroke-linecap:round;stroke-linejoin:round"
       id="path1321"
       ry="1.2269747"
       rx="1.2587315"
       cy="76.691086"
       cx="45.263775" />
    <ellipse
       style="fill:#ffffff;fill-opacity:1;stroke-width:0.055302;stroke-linecap:round;stroke-linejoin:round"
       id="path1321-3"
       ry="1.2269747"
       rx="1.2587315"
       cy="76.423767"
       cx="132.37007" />
  </g>
</svg>
