<svg width="1600" height="900" viewBox="0 0 1600 900" fill="none" xmlns="http://www.w3.org/2000/svg">
<g clip-path="url(#clip0_1_2)">
<rect width="1600" height="900" fill="#353a6b"/>
<path d="M99.7772 717.86C130.406 652.186 124.496 527.711 -4.54119 487.343L-15.6838 801.812C12.5935 795.72 75.2739 770.4 99.7772 717.86Z" fill="#2c3059"/>
<path d="M812.693 834.926C728.358 808.021 599.908 799.216 476 912.706L1501 922C1460.13 834.926 1370.6 782.379 1263.56 761.549C1156.52 740.72 1028.72 797.259 989.149 813.402C973.285 819.874 897.028 861.831 812.693 834.926Z" fill="#2c3059"/>
<path d="M1150.27 185.5C1127.27 183 906.768 136 1022.27 -133L1346.77 -204L1812.77 55.5L1634.27 620C1533.27 627.167 1334.37 596.6 1346.77 417C1362.27 192.5 1173.27 188 1150.27 185.5Z" fill="#2c3059"/>
<path d="M255 -63.5C271.167 23.3333 241.5 203 -6.5 227L-35.5 -50.5L255 -63.5Z" fill="#2c3059"/>
</g>
<defs>
<clipPath id="clip0_1_2">
<rect width="1600" height="900" fill="white"/>
</clipPath>
</defs>
</svg>
